# xmcd
#
# Track frame offsets:
#	150
#	23450
#	47225
#	60275
#	77910
#	101655
#	125465
#	149735
#	171290
#	192670
#	210860
#	226205
#	251120
#
# Disc length: 3409 seconds
#
# Revision: 0
# Processed by: cddbd v1.5.1PL0 Copyright (c) Steve Scherf et al.
# Submitted via: audiograbber 1.83.01
#
DISCID=b30d4f0d
DTITLE=Eduardo Araújo - Pó de Guaraná
DYEAR=1900
DGENRE=MPB
TTITLE0=Meu cavalo
TTITLE1=Saudade
TTITLE2=Pó de guaraná
TTITLE3=Amor de verdade
TTITLE4=20 buscar
TTITLE5=Uma história para contar
TTITLE6=Freedom song
TTITLE7=O carona
TTITLE8=Namorada de um amigo
TTITLE9=Essência do ser
TTITLE10=Tem que ser agora
TTITLE11=Freedom song (inglês)
TTITLE12=Silverado
EXTD=
EXTT0=
EXTT1=
EXTT2=
EXTT3=
EXTT4=
EXTT5=
EXTT6=
EXTT7=
EXTT8=
EXTT9=
EXTT10=
EXTT11=
EXTT12=
PLAYORDER=
